<svg width="196" height="196" viewBox="0 0 196 196" fill="none" xmlns="http://www.w3.org/2000/svg">
<path d="M0 42.3784C0 18.9734 18.9734 0 42.3784 0H153.622C177.027 0 196 18.9734 196 42.3784V153.622C196 177.027 177.027 196 153.622 196H42.3784C18.9734 196 0 177.027 0 153.622V42.3784Z" fill="black"/>
<path d="M6 46C6 23.9086 23.9086 6 46 6H151C173.091 6 191 23.9086 191 46V151C191 173.091 173.091 191 151 191H46C23.9086 191 6 173.091 6 151V46Z" fill="white"/>
<path d="M33 110.065L92.5181 152.078" stroke="#35A62C" stroke-width="15"/>
<path d="M80.8274 152.629L164 43.0649" stroke="#35A62C" stroke-width="18"/>
</svg>
